<svg xmlns="http://www.w3.org/2000/svg" overflow="hidden">
    <defs>
        <symbol id="antenna" viewBox="0 0 64 64" fill="none">
            <path d="M61.5463 44.1952L44.6599 27.1851L46.534 17.9541C47.0176 18.1429 47.5318 18.2416 48.0508 18.2453H48.0636C50.4482 18.2735 52.404 16.3633 52.4323 13.9788C52.4606 11.5943 50.5503 9.6384 48.1658 9.61013C45.7812 9.582 43.8254 11.4921 43.7971 13.8767C43.7911 14.3869 43.8755 14.8941 44.0466 15.3749L34.1266 16.5856L17.9452 0.32C17.7467 0.117467 17.4757 0.00226667 17.1921 0C16.9121 0.00146667 16.644 0.112933 16.4455 0.3104L13.4204 3.3184C13.004 3.73493 13.004 4.41013 13.4204 4.82667L15.0481 6.47787C8.74201 18.0737 10.7903 32.4335 20.0871 41.8037C20.1724 41.8853 20.2713 41.9513 20.3793 41.9989C20.3121 42.3599 20.2771 42.7261 20.2748 43.0933V55.4667H7.47481C4.53081 55.4701 2.14495 57.856 2.14148 60.8V62.9333C2.14148 63.5224 2.61908 64 3.20815 64H52.2748C52.8639 64 53.3415 63.5224 53.3415 62.9333V60.8C53.338 57.856 50.9522 55.4701 48.0082 55.4667H35.2082V49.9829C37.2134 50.4035 39.2564 50.6179 41.3052 50.6229C46.2215 50.6176 51.0595 49.392 55.3852 47.056L57.0215 48.7019C57.22 48.9044 57.491 49.0196 57.7746 49.0219C58.0546 49.0204 58.3227 48.9089 58.5212 48.7115L61.5463 45.7035C61.9627 45.2869 61.9627 44.6117 61.5463 44.1952ZM46.5596 12.4661C47.395 11.6352 48.7458 11.6389 49.5766 12.4743C50.4075 13.3096 50.4038 14.6604 49.5684 15.4912C49.1686 15.8889 48.6275 16.1121 48.0635 16.112H48.0571C46.879 16.1059 45.9287 15.1459 45.9348 13.9676C45.9378 13.4036 46.1639 12.8639 46.5638 12.4661H46.5596ZM44.0487 19.4752L42.8519 25.3664L40.5009 23.0016L44.0487 19.4752ZM42.837 17.6715L38.997 21.4891L36.0263 18.5024L42.837 17.6715ZM48.0082 57.6C49.7755 57.6 51.2082 59.0327 51.2082 60.8V61.8667H4.27481V60.8C4.27481 59.0327 5.70748 57.6 7.47481 57.6H48.0082ZM33.0748 53.3333V55.4667H22.4081V53.3333H33.0748ZM22.4081 51.2V43.0933C22.4081 40.5056 24.8007 38.4 27.7415 38.4C30.6823 38.4 33.0748 40.5056 33.0748 43.0933V51.2H22.4081ZM35.2082 47.808V43.0933C35.2082 39.3291 31.8588 36.2667 27.7415 36.2667C25.0793 36.2259 22.59 37.5809 21.1793 39.8389C13.0639 31.2913 11.2364 18.5485 16.6221 8.06467L53.8258 45.4816C48.081 48.404 41.4955 49.2268 35.2082 47.808ZM57.7863 46.4405L56.2834 44.9291L17.1815 5.59147L15.6721 4.07893L17.1815 2.57493L33.0513 18.5344C33.0588 18.5344 33.0631 18.5483 33.0706 18.5536L59.2999 44.9365L57.7863 46.4405Z" fill="#2E2F42"/>
            <path d="M27.7511 40.5333H27.7415C25.9742 40.5306 24.5394 41.9612 24.5367 43.7285C24.534 45.4958 25.9646 46.9306 27.7319 46.9333H27.7415C29.5088 46.936 30.9436 45.5054 30.9463 43.7381C30.9489 41.9708 29.5184 40.536 27.7511 40.5333ZM28.4978 44.4896C28.297 44.6893 28.0248 44.801 27.7415 44.8C27.1524 44.7969 26.6774 44.3169 26.6804 43.7278C26.6819 43.4458 26.795 43.176 26.9948 42.977C27.1934 42.7796 27.4615 42.6681 27.7415 42.6666C28.3306 42.6697 28.8056 43.1497 28.8026 43.7388C28.8011 44.0208 28.688 44.2906 28.4882 44.4896H28.4978Z" fill="#4D5AE5"/>
        </symbol>
        <symbol id="clock" viewBox="0 0 64 64" fill="none">
            <g clip-path="url(#clip0_297080_1787)">
                <path d="M62.5933 30.6025C62.5899 13.6978 48.8828 -0.00341734 31.9775 6.39362e-07C15.0728 0.00341861 1.37158 13.7109 1.375 30.6157C1.37793 43.9316 9.98877 55.7178 22.6738 59.7681C22.7949 59.8062 22.9209 59.8257 23.0474 59.8252C23.2886 59.8247 23.5249 59.7603 23.7324 59.6377C24.0024 59.478 24.2041 59.2241 24.2988 58.9248L32.0288 34.4248C34.1421 34.4141 35.8462 32.6919 35.835 30.5791C35.8242 28.4658 34.1025 26.7617 31.9893 26.7725C31.4209 26.7749 30.8599 26.9058 30.3491 27.1553L20.1372 16.9419C19.6304 16.4526 18.8232 16.4668 18.334 16.9731C17.8564 17.4678 17.8564 18.251 18.334 18.7456L28.5405 28.9639C27.7573 30.5625 28.2051 32.4922 29.6133 33.582L22.248 56.9277C7.69238 51.5659 0.239258 35.4199 5.60108 20.8643C10.9629 6.30859 27.1089 -1.14453 41.6646 4.21729C56.2202 9.5791 63.6733 25.7256 58.3115 40.2808C55.6919 47.3921 50.3096 53.1431 43.3872 56.2275L42.5913 52.479C42.4458 51.79 41.7686 51.3496 41.0796 51.4956C40.8623 51.542 40.6606 51.6441 40.4946 51.792L32.8208 58.6431C32.2944 59.1113 32.2476 59.9175 32.7163 60.4439C32.8687 60.6148 33.064 60.7417 33.2827 60.8115L43.0801 63.9385C43.7505 64.1538 44.4688 63.7852 44.6841 63.1143C44.7524 62.9024 44.7637 62.6768 44.7178 62.459L43.9356 58.7808C55.2642 54.0049 62.6196 42.8965 62.5933 30.6025ZM31.9844 29.3272C32.6885 29.3272 33.2598 29.8984 33.2598 30.6025C33.2598 31.3071 32.6885 31.8779 31.9844 31.8779C31.2798 31.8779 30.709 31.3071 30.709 30.6025C30.709 29.8984 31.2798 29.3272 31.9844 29.3272ZM36.1851 59.0552L40.5532 55.1587L41.7588 60.8394L36.1851 59.0552Z" fill="#2E2F42"/>
                <path d="M30.709 6.37012V8.9209C30.709 9.62549 31.2798 10.1963 31.9844 10.1963C32.6885 10.1963 33.2598 9.62549 33.2598 8.9209V6.37012C33.2598 5.66602 32.6885 5.09473 31.9844 5.09473C31.2798 5.09473 30.709 5.66602 30.709 6.37012Z" fill="#4D5AE5"/>
                <path d="M7.75195 29.3271C7.04736 29.3271 6.47656 29.8984 6.47656 30.6025C6.47656 31.3071 7.04736 31.8779 7.75195 31.8779H10.3027C11.0073 31.8779 11.5781 31.3071 11.5781 30.6025C11.5781 29.8984 11.0073 29.3271 10.3027 29.3271H7.75195Z" fill="#4D5AE5"/>
                <path d="M56.2162 31.8779C56.9208 31.8779 57.4916 31.3071 57.4916 30.6025C57.4916 29.8984 56.9208 29.3271 56.2162 29.3271H53.6655C52.9614 29.3271 52.3901 29.8984 52.3901 30.6025C52.3901 31.3071 52.9614 31.8779 53.6655 31.8779H56.2162Z" fill="#4D5AE5"/>
            </g>
            <defs>
                <clipPath id="clip0_297080_1787">
                <rect width="64" height="64" fill="white"/>
                </clipPath>
            </defs>
        </symbol>
        <symbol id="graph" viewBox="0 0 64 64" fill="none">
            <g clip-path="url(#clip0_297080_1794)">
                <path d="M29.8511 29.9292H31.9833V39.5242H29.8511V29.9292Z" fill="#4D5AE5"/>
                <path d="M38.3799 34.1936H40.5121V39.5242H38.3799V34.1936Z" fill="#4D5AE5"/>
                <path d="M21.3221 37.392H23.4544V39.5242H21.3221V37.392Z" fill="#4D5AE5"/>
                <path d="M14.9255 36.3258H17.0578V39.5241H14.9255V36.3258Z" fill="#4D5AE5"/>
                <path d="M3.19833 56.5819H54.3715C56.1378 56.5819 57.5699 55.1499 57.5699 53.3836V49.1192C57.5699 47.3529 56.1378 45.9209 54.3715 45.9209H53.3054V19.3343L59.3611 13.5977C60.7666 14.2905 62.4678 13.8699 63.3876 12.6003C64.308 11.3312 64.1789 9.58364 63.0826 8.46339C61.9863 7.34314 60.2424 7.17604 58.953 8.06776C57.6641 8.96 57.206 10.6513 57.8681 12.0719L53.3054 16.3973V13.9376C53.3054 12.1713 51.8734 10.7393 50.1071 10.7393H7.46276C5.6965 10.7393 4.26443 12.1713 4.26443 13.9376V45.9209H3.19833C1.43206 45.9209 0 47.3529 0 49.1192V53.3836C0 55.1499 1.43206 56.5819 3.19833 56.5819ZM60.7682 9.67317C61.3569 9.67317 61.8343 10.1505 61.8343 10.7393C61.8343 11.328 61.3569 11.8054 60.7682 11.8054C60.1794 11.8054 59.7021 11.328 59.7021 10.7393C59.7021 10.1505 60.1794 9.67317 60.7682 9.67317ZM6.39665 13.9376C6.39665 13.3489 6.874 12.8715 7.46276 12.8715H50.1071C50.6958 12.8715 51.1732 13.3489 51.1732 13.9376V18.4149L49.041 20.441V16.0698C49.041 15.4811 48.5636 15.0037 47.9749 15.0037H9.59498C9.00622 15.0037 8.52887 15.4811 8.52887 16.0698V42.7225C8.52887 43.3113 9.00622 43.7886 9.59498 43.7886H47.9749C48.5636 43.7886 49.041 43.3113 49.041 42.7225V23.3738L51.1732 21.3535V45.9209H6.39665V13.9376ZM15.9916 27.797C14.5492 27.7929 13.2826 28.7538 12.899 30.1442C12.5153 31.5346 13.1093 33.0094 14.3498 33.7455C15.5898 34.4815 17.1697 34.2967 18.2061 33.2936L21.912 35.1531C22.3425 35.3686 22.8646 35.2676 23.1847 34.9079L31.0624 26.0453L38.8062 31.848C39.2216 32.1593 39.8016 32.126 40.1784 31.7694L46.9088 25.3941V41.6564H10.6611V17.1359H46.9088V22.4566L39.3658 29.5997L31.5569 23.7455C31.1134 23.4134 30.4892 23.4758 30.1207 23.8897L22.1348 32.8751L19.1493 31.3821C19.1712 31.2541 19.1847 31.125 19.19 30.9953C19.19 29.2291 17.7579 27.797 15.9916 27.797ZM17.0577 30.9953C17.0577 31.5841 16.5804 32.0615 15.9916 32.0615C15.4029 32.0615 14.9255 31.5841 14.9255 30.9953C14.9255 30.4066 15.4029 29.9292 15.9916 29.9292C16.5804 29.9292 17.0577 30.4066 17.0577 30.9953ZM23.4544 48.0531H34.1155V49.1192C34.1155 49.7079 33.6381 50.1853 33.0494 50.1853H24.5205C23.9317 50.1853 23.4544 49.7079 23.4544 49.1192V48.0531ZM2.13222 49.1192C2.13222 48.5304 2.60957 48.0531 3.19833 48.0531H21.3222V49.1192C21.3222 50.8855 22.7542 52.3175 24.5205 52.3175H33.0494C34.8156 52.3175 36.2477 50.8855 36.2477 49.1192V48.0531H54.3715C54.9603 48.0531 55.4376 48.5304 55.4376 49.1192V53.3836C55.4376 53.9724 54.9603 54.4497 54.3715 54.4497H3.19833C2.60957 54.4497 2.13222 53.9724 2.13222 53.3836V49.1192Z" fill="#2E2F42"/>
            </g>
            <defs>
                <clipPath id="clip0_297080_1794">
                    <rect width="64" height="64" fill="white"/>
                </clipPath>
            </defs>
        </symbol>
        <symbol id="astro" viewBox="0 0 64 64" fill="none">
            <path d="M63.9481 9.04812C63.8222 8.66299 63.4894 8.38149 63.0873 8.32274L59.2665 7.76698L57.5566 4.30455C57.1982 3.57492 56.0025 3.57492 55.6441 4.30455L53.9342 7.76698L50.1132 8.32286C49.7111 8.38149 49.3784 8.66212 49.2514 9.04825C49.1266 9.43438 49.23 9.85889 49.5212 10.1416L52.2872 12.8372L51.6344 16.6431C51.5661 17.0431 51.7304 17.4474 52.0579 17.6864C52.3897 17.9275 52.8227 17.9573 53.1822 17.7674L56.5998 15.97L60.0175 17.7674C60.1733 17.8495 60.345 17.89 60.5146 17.89C60.7354 17.89 60.9563 17.8218 61.1419 17.6863C61.4704 17.4474 61.6347 17.043 61.5654 16.643L60.9127 12.8371L63.6786 10.1415C63.9683 9.85776 64.073 9.43425 63.9481 9.04812ZM59.0223 11.702C58.7716 11.9463 58.6564 12.3004 58.7161 12.6461L59.098 14.8743L57.097 13.8226C56.9412 13.7404 56.7706 13.6999 56.5998 13.6999C56.4292 13.6999 56.2596 13.7404 56.1027 13.8226L54.1016 14.8743L54.4834 12.6461C54.5432 12.3004 54.4279 11.9474 54.1773 11.702L52.557 10.1234L54.7949 9.79801C55.1427 9.74788 55.4424 9.52926 55.5982 9.2145L56.5987 7.18785L57.5992 9.2145C57.755 9.52913 58.0547 9.74788 58.4025 9.79801L60.6404 10.1234L59.0223 11.702Z" fill="#4D5AE5"/>
            <path d="M52.267 41.0444H50.1335V43.1778H52.267V41.0444Z" fill="#4D5AE5"/>
            <path d="M52.267 45.3112H50.1335V47.4446H52.267V45.3112Z" fill="#4D5AE5"/>
            <path d="M54.4004 43.1778H52.267V45.3112H54.4004V43.1778Z" fill="#4D5AE5"/>
            <path d="M50.1337 43.1778H48.0002V45.3112H50.1337V43.1778Z" fill="#4D5AE5"/>
            <path d="M44.8001 52.778H42.6667V54.9113H44.8001V52.778Z" fill="#4D5AE5"/>
            <path d="M44.8001 57.0446H42.6667V59.1781H44.8001V57.0446Z" fill="#4D5AE5"/>
            <path d="M46.9336 54.9113H44.8002V57.0448H46.9336V54.9113Z" fill="#4D5AE5"/>
            <path d="M42.6667 54.9113H40.5333V57.0448H42.6667V54.9113Z" fill="#4D5AE5"/>
            <path d="M32 48.5113H29.8666V50.6447H32V48.5113Z" fill="#4D5AE5"/>
            <path d="M32 52.778H29.8666V54.9113H32V52.778Z" fill="#4D5AE5"/>
            <path d="M34.1334 50.6445H32V52.7779H34.1334V50.6445Z" fill="#4D5AE5"/>
            <path d="M29.8666 50.6445H27.7332V52.7779H29.8666V50.6445Z" fill="#4D5AE5"/>
            <path d="M11.733 12.2439H9.59961V14.3773H11.733V12.2439Z" fill="#4D5AE5"/>
            <path d="M11.733 16.5108H9.59961V18.6442H11.733V16.5108Z" fill="#4D5AE5"/>
            <path d="M13.8663 14.3774H11.7329V16.5108H13.8663V14.3774Z" fill="#4D5AE5"/>
            <path d="M9.59959 14.3774H7.46619V16.5108H9.59959V14.3774Z" fill="#4D5AE5"/>
            <path d="M49.4295 28.3189C48.8546 27.5434 48.0109 27.0443 47.053 26.9098C46.0908 26.7733 45.1414 27.026 44.3734 27.6138L41.8699 29.5327L41.8688 29.5338L38.0734 32.368L35.3577 31.2864C40.2004 29.1136 43.585 24.2698 43.585 18.6462C43.585 11.0002 37.3396 4.77933 29.6627 4.77933C21.9858 4.77933 15.7405 11.0002 15.7405 18.6462C15.7405 21.4175 16.5692 23.9945 17.9805 26.163L12.4529 26.115C12.4497 26.115 12.4465 26.115 12.4433 26.115C12.4262 26.115 12.4124 26.1235 12.3964 26.1247C12.2908 26.1289 12.1873 26.1503 12.086 26.1865C12.0604 26.1962 12.0338 26.2015 12.0093 26.2132C11.9965 26.2185 11.9837 26.2195 11.9709 26.2259L5.50468 29.4185C5.50356 29.4185 5.50256 29.4185 5.50256 29.4195L1.71575 31.2405C1.67412 31.2586 1.6315 31.2831 1.58987 31.3109C0.0804746 32.3156 -0.433659 34.289 0.393104 35.9018C0.833611 36.7594 1.5835 37.391 2.50514 37.68C2.86039 37.7908 3.22302 37.8453 3.58353 37.8453C4.16279 37.8453 4.73667 37.7035 5.26243 37.423L8.03798 35.9467L12.566 33.6085L15.2797 33.5925L4.39629 44.4237C4.39529 44.4248 4.39417 44.4248 4.39304 44.4258L1.71563 47.0925C1.08312 47.7219 0.73536 48.557 0.73536 49.4478C0.73536 50.3374 1.08312 51.1747 1.71563 51.8052C2.36526 52.4516 3.21965 52.7758 4.07404 52.7758C4.92955 52.7758 5.78281 52.4516 6.43457 51.8052L9.06287 49.1875L12.5445 46.588L14.3462 48.3821L10.8229 51.8904C10.8219 51.8916 10.8208 51.8916 10.8196 51.8926L8.14223 54.5592C7.50972 55.1886 7.16196 56.0237 7.16196 56.9145C7.16196 57.8041 7.50972 58.6414 8.14223 59.2719C8.79186 59.9183 9.64738 60.2426 10.5018 60.2426C11.3562 60.2426 12.2117 59.9183 12.8623 59.2719L15.5407 56.6052L19.8255 52.3386C19.8267 52.3374 19.8267 52.3364 19.8277 52.3353L21.8469 50.3353L21.8394 50.3278C21.8522 50.315 21.8703 50.3106 21.8832 50.2969L32.2151 38.9805L39.1571 39.9682C39.2072 39.9757 39.2573 39.9789 39.3075 39.9789C39.4366 39.9789 39.5613 39.948 39.6819 39.9021C39.7171 39.8894 39.748 39.8722 39.7811 39.8552C39.8195 39.836 39.86 39.8254 39.8964 39.8009L46.3231 35.5342C46.3466 35.5182 46.3593 35.4925 46.3817 35.4755C46.4073 35.4553 46.4393 35.4468 46.4627 35.4243L49.0056 33.0424C50.3288 31.8026 50.5111 29.7717 49.4295 28.3189ZM4.26079 35.5403C3.91416 35.7259 3.52053 35.7632 3.14402 35.6438C2.77064 35.5275 2.46776 35.2725 2.29063 34.928C1.9685 34.3008 2.15513 33.537 2.71939 33.1243L5.34668 31.8602L5.97919 33.7088L6.24482 34.4853L4.26079 35.5403ZM11.255 31.8849L8.15848 33.4849L7.64759 31.9915L7.28071 30.9184L11.3342 28.9172L11.255 31.8849ZM41.4539 18.644C41.4539 20.4808 41.0155 22.2132 40.256 23.763L31.8932 19.9646C31.8057 18.8179 31.2106 17.8142 30.3167 17.189L33.2447 7.46837C38.0001 8.98102 41.4539 13.4173 41.4539 18.644ZM17.876 18.644C17.876 12.1746 23.1646 6.91049 29.6649 6.91049C30.1706 6.91049 30.6655 6.95311 31.1551 7.01499L28.291 16.5224C28.2527 16.5213 28.2164 16.5106 28.1769 16.5106C26.1118 16.5106 24.4317 18.1853 24.4317 20.2441C24.4317 22.3027 26.1118 23.9775 28.1769 23.9775C29.5657 23.9775 30.7657 23.2106 31.4132 22.0883L39.1381 25.5978C36.9887 28.4906 33.5486 30.3776 29.6648 30.3776C23.1646 30.3776 17.876 25.1135 17.876 18.644ZM29.7887 20.2441C29.7887 21.1262 29.0654 21.8441 28.1769 21.8441C27.2884 21.8441 26.5651 21.1262 26.5651 20.2441C26.5651 19.3619 27.2884 18.644 28.1769 18.644C29.0654 18.644 29.7887 19.3619 29.7887 20.2441ZM4.92968 50.2925C4.45717 50.7608 3.69228 50.7598 3.2209 50.2936C2.99365 50.0664 2.86889 49.7668 2.86889 49.4478C2.86889 49.1299 2.99365 48.8301 3.2209 48.6051L5.14505 46.6882L6.84746 48.3832L4.92968 50.2925ZM11.3574 57.7594C10.8849 58.2276 10.119 58.2288 9.6475 57.7605C9.42025 57.5333 9.29549 57.2336 9.29549 56.9146C9.29549 56.5967 9.42025 56.297 9.6475 56.072L11.5729 54.1541L12.3783 54.9552L13.2764 55.8491L11.3574 57.7594ZM18.3208 50.8217C18.3196 50.8227 18.3186 50.8227 18.3175 50.8238L14.7878 54.3438L13.9824 53.5427L13.0843 52.6488L16.6107 49.1384C16.6107 49.1384 16.6107 49.1384 16.6107 49.1374C16.6119 49.1363 16.6129 49.1363 16.614 49.1353C16.694 49.0553 16.7441 48.9593 16.7932 48.8644C16.8071 48.8366 16.8337 48.8131 16.8455 48.7844C16.8786 48.7023 16.8839 48.6138 16.8967 48.5272C16.9031 48.4781 16.9245 48.4324 16.9245 48.3821C16.9245 48.3106 16.8989 48.2414 16.884 48.1709C16.8712 48.1069 16.8712 48.0417 16.8466 47.98C16.8061 47.8797 16.7367 47.7912 16.6642 47.7047C16.644 47.6812 16.6365 47.6514 16.6141 47.629C16.6141 47.629 16.6141 47.629 16.613 47.629C16.6119 47.628 16.6119 47.6257 16.6109 47.6247L13.3969 44.4247C13.3628 44.3906 13.3191 44.3767 13.2807 44.3479C13.2242 44.3042 13.1698 44.2637 13.1068 44.2327C13.0461 44.2028 12.9842 44.1847 12.9202 44.1676C12.8519 44.1483 12.7858 44.1334 12.7143 44.1281C12.6492 44.1238 12.5884 44.1302 12.5234 44.1377C12.4519 44.1462 12.3848 44.1558 12.3154 44.1782C12.2482 44.1996 12.1885 44.2326 12.1267 44.2678C12.0872 44.2902 12.0424 44.2977 12.005 44.3254L8.45836 46.973L6.6567 45.1788L11.4547 40.4065L20.1759 48.9838L18.3208 50.8217ZM31.9584 36.7883C31.9275 36.7841 31.8986 36.7958 31.8677 36.7937C31.7898 36.7894 31.7152 36.7948 31.6373 36.8076C31.5766 36.8182 31.519 36.8299 31.4613 36.8502C31.3931 36.8737 31.3312 36.9057 31.2682 36.9441C31.2085 36.9803 31.1541 37.0187 31.1018 37.0667C31.0762 37.0891 31.0453 37.0998 31.0218 37.1253L21.6253 47.4167L12.9692 38.9035L18.6354 33.2671C19.0525 32.8511 19.0546 32.1759 18.6386 31.7577C18.4285 31.5476 18.1523 31.4441 17.876 31.4452V31.4442L13.4386 31.4709L13.4941 28.2559L19.7022 28.3093C22.2323 30.8971 25.7609 32.511 29.6649 32.511C30.5396 32.511 31.393 32.4204 32.2239 32.2656C32.3039 32.3296 32.3827 32.3948 32.4831 32.4353L37.3024 34.3553L37.6074 35.8721L37.9637 37.6427L31.9584 36.7883ZM40.0406 37.1446L39.4145 34.0288L42.3073 31.8687L43.0647 32.8735L44.2007 34.3818L40.0406 37.1446ZM47.5478 31.4826L45.8721 33.0528L44.0097 30.5802L45.6726 29.3056C45.9829 29.0667 46.3745 28.9696 46.7585 29.0197C47.1446 29.0741 47.486 29.2757 47.7185 29.5882C48.1516 30.1717 48.078 30.9856 47.5478 31.4826Z" fill="#2E2F42"/>
            <path d="M27.2041 37.0881L22.9182 32.8214C22.5033 32.4065 21.829 32.4065 21.413 32.8214L17.1282 37.0881C16.9277 37.2897 16.8146 37.5606 16.8146 37.8443C16.8146 38.1281 16.9266 38.4001 17.1282 38.6006L21.413 42.8673C21.621 43.0742 21.8942 43.1777 22.1662 43.1777C22.4382 43.1777 22.7112 43.0742 22.9182 42.8673L27.2041 38.6006C27.4046 38.4001 27.5187 38.1281 27.5187 37.8443C27.5187 37.5606 27.4056 37.2886 27.2041 37.0881ZM22.1662 40.606L19.3927 37.8443L22.1662 35.0827L24.9406 37.8443L22.1662 40.606Z" fill="#2E2F42"/>
            <path d="M34.3285 10.1415L33.8132 12.2131C33.9551 12.2483 37.2885 13.1166 37.2885 16.5108H39.4219C39.4218 12.4765 36.0906 10.5799 34.3285 10.1415Z" fill="#2E2F42"/>
            <path d="M39.422 18.644H37.2886V20.7775H39.422V18.644Z" fill="#2E2F42"/>
        </symbol>
        <symbol id="instagram" xmlns="http://www.w3.org/2000/svg" viewBox="0 0 16 16" fill="none">
        <g clip-path="url(#clip0_647622_203)">
        <path d="M15.9843 4.70392C15.9468 3.85378 15.8093 3.26932 15.6124 2.76287C15.4092 2.22529 15.0967 1.74399 14.6872 1.34389C14.2871 0.937561 13.8026 0.621826 13.2713 0.421835C12.7619 0.224897 12.1805 0.0874194 11.3303 0.0499365C10.4738 0.00927917 10.2019 -0.00012207 8.02963 -0.00012207C5.85733 -0.00012207 5.58543 0.00927917 4.73212 0.0467621C3.88197 0.084245 3.29751 0.221845 2.79119 0.418661C2.25348 0.621826 1.77219 0.934387 1.37209 1.34389C0.965758 1.74399 0.650145 2.22846 0.450033 2.75982C0.253096 3.26932 0.115618 3.85061 0.0781347 4.70075C0.0374774 5.55724 0.0280762 5.82914 0.0280762 8.00144C0.0280762 10.1737 0.0374774 10.4456 0.0749603 11.299C0.112443 12.1491 0.250043 12.7336 0.446981 13.24C0.650145 13.7776 0.965758 14.2589 1.37209 14.659C1.77219 15.0653 2.25666 15.3811 2.78801 15.581C3.29751 15.778 3.8788 15.9155 4.72906 15.9529C5.58226 15.9906 5.85428 15.9998 8.02658 15.9998C10.1989 15.9998 10.4708 15.9906 11.3241 15.9529C12.1742 15.9155 12.7587 15.778 13.265 15.581C14.3403 15.1653 15.1904 14.3152 15.6062 13.24C15.803 12.7305 15.9406 12.1491 15.9781 11.299C16.0156 10.4456 16.025 10.1737 16.025 8.00144C16.025 5.82914 16.0218 5.55724 15.9843 4.70392ZM14.5435 11.2364C14.509 12.0179 14.3778 12.4398 14.2684 12.7211C13.9995 13.4181 13.4463 13.9714 12.7493 14.2402C12.468 14.3496 12.043 14.4809 11.2646 14.5152C10.4207 14.5528 10.1676 14.562 8.03281 14.562C5.89799 14.562 5.64172 14.5528 4.80085 14.5152C4.01945 14.4809 3.5975 14.3496 3.31619 14.2402C2.96932 14.112 2.65359 13.9088 2.39731 13.6432C2.13163 13.3837 1.92847 13.0712 1.80027 12.7243C1.69087 12.443 1.55962 12.0179 1.52532 11.2396C1.48771 10.3957 1.47843 10.1425 1.47843 8.00767C1.47843 5.87285 1.48771 5.61658 1.52532 4.77584C1.55962 3.99443 1.69087 3.57248 1.80027 3.29117C1.92847 2.94418 2.13163 2.62857 2.40049 2.37217C2.65981 2.10649 2.97237 1.90333 3.31937 1.77525C3.60067 1.66585 4.0258 1.5346 4.80403 1.50017C5.64794 1.46269 5.90117 1.45329 8.03586 1.45329C10.1738 1.45329 10.4269 1.46269 11.2678 1.50017C12.0492 1.5346 12.4712 1.66585 12.7525 1.77525C13.0993 1.90333 13.4151 2.10649 13.6714 2.37217C13.937 2.63162 14.1402 2.94418 14.2684 3.29117C14.3778 3.57248 14.509 3.99748 14.5435 4.77584C14.581 5.61975 14.5904 5.87285 14.5904 8.00767C14.5904 10.1425 14.581 10.3925 14.5435 11.2364Z" fill="#F4F4FD"/>
        <path d="M8.02967 3.89124C5.76055 3.89124 3.91949 5.73217 3.91949 8.00141C3.91949 10.2707 5.76055 12.1116 8.02967 12.1116C10.2989 12.1116 12.1398 10.2707 12.1398 8.00141C12.1398 5.73217 10.2989 3.89124 8.02967 3.89124ZM8.02967 10.6676C6.55758 10.6676 5.3635 9.47362 5.3635 8.00141C5.3635 6.5292 6.55758 5.33524 8.02967 5.33524C9.50188 5.33524 10.6958 6.5292 10.6958 8.00141C10.6958 9.47362 9.50188 10.6676 8.02967 10.6676Z" fill="#F4F4FD"/>
        <path d="M13.262 3.72871C13.262 4.2586 12.8324 4.68825 12.3024 4.68825C11.7725 4.68825 11.3428 4.2586 11.3428 3.72871C11.3428 3.19869 11.7725 2.76917 12.3024 2.76917C12.8324 2.76917 13.262 3.19869 13.262 3.72871Z" fill="#F4F4FD"/>
        </g>
        <defs>
            <clipPath id="clip0_647622_203">
                <rect width="16" height="16" fill="white"/>
            </clipPath>
        </defs>
        </symbol>
        <symbol id="twitter" xmlns="http://www.w3.org/2000/svg" viewBox="0 0 16 16" fill="none">
            <g clip-path="url(#clip0_647622_209)">
            <path d="M16 3.03888C15.405 3.29988 14.771 3.47288 14.11 3.55688C14.79 3.15088 15.309 2.51288 15.553 1.74388C14.919 2.12188 14.219 2.38888 13.473 2.53788C12.871 1.89688 12.013 1.49988 11.077 1.49988C9.261 1.49988 7.799 2.97388 7.799 4.78088C7.799 5.04088 7.821 5.29088 7.875 5.52888C5.148 5.39588 2.735 4.08888 1.114 2.09788C0.831 2.58888 0.665 3.15088 0.665 3.75588C0.665 4.89188 1.25 5.89888 2.122 6.48188C1.595 6.47188 1.078 6.31888 0.64 6.07788C0.64 6.08788 0.64 6.10088 0.64 6.11388C0.64 7.70788 1.777 9.03188 3.268 9.33688C3.001 9.40988 2.71 9.44488 2.408 9.44488C2.198 9.44488 1.986 9.43288 1.787 9.38888C2.212 10.6879 3.418 11.6429 4.852 11.6739C3.736 12.5469 2.319 13.0729 0.785 13.0729C0.516 13.0729 0.258 13.0609 0 13.0279C1.453 13.9649 3.175 14.4999 5.032 14.4999C11.068 14.4999 14.368 9.49988 14.368 5.16588C14.368 5.02088 14.363 4.88088 14.356 4.74188C15.007 4.27988 15.554 3.70288 16 3.03888Z" fill="#F4F4FD"/>
            </g>
            <defs>
                <clipPath id="clip0_647622_209">
                    <rect width="16" height="16" fill="white"/>
                </clipPath>
            </defs>
        </symbol>
        <symbol id="facebook" xmlns="http://www.w3.org/2000/svg" viewBox="0 0 16 16" fill="none">
            <g clip-path="url(#clip0_647622_215)">
            <path d="M10.6647 2.65654H12.1254V0.112545C11.8734 0.0778779 11.0067 -0.00012207 9.99736 -0.00012207C7.89136 -0.00012207 6.4487 1.32454 6.4487 3.75921V5.99988H4.12469V8.84388H6.4487V15.9999H9.29803V8.84455H11.528L11.882 6.00055H9.29736V4.04121C9.29803 3.21921 9.51936 2.65654 10.6647 2.65654Z" fill="#F4F4FD"/>
            </g>
            <defs>
            <clipPath id="clip0_647622_215">
                <rect width="16" height="16" fill="white"/>
            </clipPath>
            </defs>
        </symbol>
        <symbol id="linkedin" xmlns="http://www.w3.org/2000/svg" viewBox="0 0 16 16" fill="none">
            <g clip-path="url(#clip0_647622_219)">
            <path d="M15.9961 15.9999V15.9992H16.0001V10.1312C16.0001 7.26053 15.3821 5.04919 12.0261 5.04919C10.4128 5.04919 9.33009 5.93453 8.88809 6.77386H8.84143V5.31719H5.65942V15.9992H8.97276V10.7099C8.97276 9.31719 9.23676 7.97053 10.9614 7.97053C12.6608 7.97053 12.6861 9.55986 12.6861 10.7992V15.9999H15.9961Z" fill="#F4F4FD"/>
            <path d="M0.264038 5.31787H3.58137V15.9999H0.264038V5.31787Z" fill="#F4F4FD"/>
            <path d="M1.92139 -0.00012207C0.860728 -0.00012207 6.10352e-05 0.860545 6.10352e-05 1.92121C6.10352e-05 2.98188 0.860728 3.86055 1.92139 3.86055C2.98206 3.86055 3.84273 2.98188 3.84273 1.92121C3.84206 0.860545 2.98139 -0.00012207 1.92139 -0.00012207V-0.00012207Z" fill="#F4F4FD"/>
            </g>
            <defs>
                <clipPath id="clip0_647622_219">
                    <rect width="16" height="16" fill="white"/>
                </clipPath>
            </defs>
        </symbol>
        <symbol id="icon-cross" viewBox="0 0 32 32">
            <path d="M31.708 25.708c-0-0-0-0-0-0l-9.708-9.708 9.708-9.708c0-0 0-0 0-0 0.105-0.105 0.18-0.227 0.229-0.357 0.133-0.356 0.057-0.771-0.229-1.057l-4.586-4.586c-0.286-0.286-0.702-0.361-1.057-0.229-0.13 0.048-0.252 0.124-0.357 0.228 0 0-0 0-0 0l-9.708 9.708-9.708-9.708c-0-0-0-0-0-0-0.105-0.104-0.227-0.18-0.357-0.228-0.356-0.133-0.771-0.057-1.057 0.229l-4.586 4.586c-0.286 0.286-0.361 0.702-0.229 1.057 0.049 0.13 0.124 0.252 0.229 0.357 0 0 0 0 0 0l9.708 9.708-9.708 9.708c-0 0-0 0-0 0-0.104 0.105-0.18 0.227-0.229 0.357-0.133 0.355-0.057 0.771 0.229 1.057l4.586 4.586c0.286 0.286 0.702 0.361 1.057 0.229 0.13-0.049 0.252-0.124 0.357-0.229 0-0 0-0 0-0l9.708-9.708 9.708 9.708c0 0 0 0 0 0 0.105 0.105 0.227 0.18 0.357 0.229 0.356 0.133 0.771 0.057 1.057-0.229l4.586-4.586c0.286-0.286 0.362-0.702 0.229-1.057-0.049-0.13-0.124-0.252-0.229-0.357z"></path>
        </symbol>
        <symbol id="icon-phone" viewBox="0 0 32 32">
            <path d="M22 20c-2 2-2 4-4 4s-4-2-6-4-4-4-4-6 2-2 4-4-4-8-6-8-6 6-6 6c0 4 4.109 12.109 8 16s12 8 16 8c0 0 6-4 6-6s-6-8-8-6z"></path>
        </symbol>
        <symbol id="icon-user" viewBox="0 0 32 32">
            <path d="M18 22.082v-1.649c2.203-1.241 4-4.337 4-7.432 0-4.971 0-9-6-9s-6 4.029-6 9c0 3.096 1.797 6.191 4 7.432v1.649c-6.784 0.555-12 3.888-12 7.918h28c0-4.030-5.216-7.364-12-7.918z"></path>
        </symbol>
        <symbol id="icon-mail2" viewBox="0 0 32 32">
            <path d="M26.667 0h-21.333c-2.934 0-5.334 2.4-5.334 5.334v21.332c0 2.936 2.4 5.334 5.334 5.334h21.333c2.934 0 5.333-2.398 5.333-5.334v-21.332c0-2.934-2.399-5.334-5.333-5.334zM26.667 4c0.25 0 0.486 0.073 0.688 0.198l-11.355 9.388-11.355-9.387c0.202-0.125 0.439-0.198 0.689-0.198h21.333zM5.334 28c-0.060 0-0.119-0.005-0.178-0.013l7.051-9.78-0.914-0.914-7.293 7.293v-19.098l12 14.512 12-14.512v19.098l-7.293-7.293-0.914 0.914 7.051 9.78c-0.058 0.008-0.117 0.013-0.177 0.013h-21.333z"></path>
        </symbol>
        <symbol id="icon-checkbox-unchecked" viewBox="0 0 32 32">
            <path d="M28 0h-24c-2.2 0-4 1.8-4 4v24c0 2.2 1.8 4 4 4h24c2.2 0 4-1.8 4-4v-24c0-2.2-1.8-4-4-4zM28 28h-24v-24h24v24z"></path>
        </symbol>
        <symbol id="cs1" viewBox="0 0 110 56" fill="none">
            <path fill-rule="evenodd" clip-rule="evenodd" d="M40.8537 4L47.6901 10.8401L35 10.8322V44.021H68.1707V31.3318L75 38.1647V4H40.8537ZM67.8706 30.5284L48.4859 11.1332H67.8706V30.5284ZM61.8518 39.1663H40.2489V16.8451H41.7759V37.6548H61.8518V39.1663ZM44.5942 50.0918L43.769 48.3951H43.0879L44.2842 50.6412V51.9498H44.9019V50.6412L46.0981 48.3951H45.4194L44.5942 50.0918ZM47.6362 48.3951H47.7827L49.1255 51.9498H48.481L48.1933 51.1172H46.8172L46.5303 51.9498H45.8882L47.2261 48.3951H47.3701H47.6362ZM46.9847 50.6314H48.0255L47.5045 49.1234L46.9847 50.6314ZM51.2804 50.0424C51.2537 50.0084 51.2279 49.9752 51.2031 49.9429C51.112 49.8225 51.0412 49.7061 50.9907 49.5938C50.9403 49.4799 50.915 49.3627 50.915 49.2422C50.915 49.0567 50.9533 48.8972 51.0298 48.7637C51.1063 48.6303 51.2145 48.5277 51.3545 48.4561C51.4945 48.3829 51.658 48.3462 51.8452 48.3462C52.0259 48.3462 52.1813 48.3829 52.3115 48.4561C52.4434 48.5277 52.5443 48.6229 52.6143 48.7417C52.6859 48.8606 52.7217 48.9908 52.7217 49.1324C52.7217 49.2447 52.7013 49.3472 52.6606 49.44C52.62 49.5328 52.5638 49.6174 52.4922 49.6939C52.4206 49.7704 52.3376 49.8428 52.2432 49.9112L51.9963 50.0909L52.7002 50.9216C52.7234 50.876 52.7444 50.8281 52.7632 50.7779C52.8234 50.6216 52.8535 50.4483 52.8535 50.2579H53.3613C53.3613 50.4304 53.3442 50.594 53.3101 50.7486C53.2775 50.9032 53.2246 51.0464 53.1514 51.1783C53.1217 51.2329 53.0881 51.2852 53.0505 51.3351L53.5713 51.9498H52.8901L52.6835 51.7068C52.5717 51.7916 52.4501 51.858 52.3188 51.9058C52.1463 51.9677 51.9624 51.9986 51.7671 51.9986C51.5311 51.9986 51.3268 51.9554 51.1543 51.8692C50.9818 51.7829 50.8483 51.6641 50.7539 51.5127C50.6611 51.3614 50.6147 51.188 50.6147 50.9927C50.6147 50.8479 50.6449 50.7209 50.7051 50.6119C50.7653 50.5012 50.8475 50.3986 50.9517 50.3042C51.0478 50.217 51.1574 50.1297 51.2804 50.0424ZM51.5721 50.3996L51.4985 50.4532C51.4123 50.5232 51.348 50.5907 51.3057 50.6558C51.265 50.7193 51.2381 50.7779 51.2251 50.8316C51.2121 50.8853 51.2056 50.9325 51.2056 50.9732C51.2056 51.0774 51.2275 51.1718 51.2715 51.2564C51.3171 51.341 51.383 51.4086 51.4692 51.459C51.5571 51.5079 51.6637 51.5323 51.7891 51.5323C51.9242 51.5323 52.0552 51.5022 52.1821 51.4419C52.2457 51.4109 52.3061 51.3736 52.3632 51.33L51.5721 50.3996ZM51.7127 49.7503L51.9307 49.6036C52.0332 49.5352 52.1064 49.4685 52.1504 49.4034C52.1943 49.3366 52.2163 49.2536 52.2163 49.1543C52.2163 49.0697 52.1838 48.9916 52.1187 48.92C52.0535 48.8484 51.9616 48.8125 51.8428 48.8125C51.7598 48.8125 51.6898 48.8321 51.6328 48.8711C51.5758 48.9086 51.5327 48.959 51.5034 49.0225C51.4757 49.0844 51.4619 49.1535 51.4619 49.23C51.4619 49.3033 51.4806 49.379 51.5181 49.4571C51.5555 49.5336 51.6068 49.6141 51.6719 49.6988C51.6851 49.7157 51.6987 49.7329 51.7127 49.7503ZM57.9316 50.7925H57.3213C57.3034 50.9471 57.266 51.0782 57.209 51.1856C57.1536 51.2914 57.0715 51.372 56.9624 51.4273C56.855 51.4826 56.7142 51.5103 56.54 51.5103C56.3968 51.5103 56.2739 51.4818 56.1714 51.4249C56.0688 51.3679 55.9842 51.2873 55.9175 51.1832C55.8524 51.079 55.8035 50.9545 55.771 50.8096C55.7401 50.6631 55.7246 50.5004 55.7246 50.3213V50.021C55.7246 49.8322 55.7417 49.6646 55.7759 49.5181C55.8117 49.37 55.8646 49.2455 55.9346 49.1446C56.0046 49.0437 56.0916 48.9672 56.1958 48.9151C56.3 48.863 56.422 48.837 56.562 48.837C56.7329 48.837 56.8713 48.8663 56.9771 48.9249C57.0828 48.9818 57.1626 49.0648 57.2163 49.1739C57.2716 49.2829 57.3075 49.4139 57.3237 49.5669H57.9341C57.9097 49.3293 57.8429 49.1185 57.7339 48.9346C57.6265 48.7507 57.4751 48.6067 57.2798 48.5025C57.0845 48.3983 56.8452 48.3462 56.562 48.3462C56.339 48.3462 56.138 48.3853 55.959 48.4634C55.7816 48.5415 55.6294 48.6547 55.5024 48.8028C55.3755 48.9493 55.2778 49.1259 55.2095 49.3326C55.1427 49.5393 55.1094 49.7704 55.1094 50.0259V50.3213C55.1094 50.5769 55.1419 50.808 55.207 51.0147C55.2738 51.2214 55.3698 51.398 55.4951 51.5445C55.6204 51.6893 55.771 51.8016 55.9468 51.8814C56.1226 51.9595 56.3203 51.9986 56.54 51.9986C56.8265 51.9986 57.0698 51.9465 57.27 51.8423C57.4702 51.7382 57.6257 51.5957 57.7363 51.4151C57.847 51.2328 57.9121 51.0253 57.9316 50.7925ZM61.3228 50.2701V50.0748C61.3228 49.8062 61.2869 49.5661 61.2153 49.3545C61.1453 49.1413 61.0452 48.9598 60.915 48.8101C60.7848 48.6587 60.6294 48.544 60.4487 48.4659C60.2681 48.3861 60.0679 48.3462 59.8481 48.3462C59.63 48.3462 59.4307 48.3861 59.25 48.4659C59.071 48.544 58.9155 48.6587 58.7837 48.8101C58.6535 48.9598 58.5526 49.1413 58.481 49.3545C58.4093 49.5661 58.3735 49.8062 58.3735 50.0748V50.2701C58.3735 50.5386 58.4093 50.7795 58.481 50.9927C58.5542 51.2059 58.6567 51.3874 58.7886 51.5372C58.9204 51.6869 59.0758 51.8016 59.2549 51.8814C59.4355 51.9595 59.6349 51.9986 59.853 51.9986C60.0728 51.9986 60.2729 51.9595 60.4536 51.8814C60.6343 51.8016 60.7889 51.6869 60.9175 51.5372C61.0477 51.3874 61.1478 51.2059 61.2178 50.9927C61.2878 50.7795 61.3228 50.5386 61.3228 50.2701ZM60.71 50.0699V50.2701C60.71 50.4686 60.6904 50.6444 60.6514 50.7974C60.6139 50.9504 60.5586 51.0798 60.4854 51.1856C60.4121 51.2898 60.3226 51.3687 60.2168 51.4224C60.111 51.4745 59.9897 51.5005 59.853 51.5005C59.7179 51.5005 59.5975 51.4745 59.4917 51.4224C59.3859 51.3687 59.2948 51.2898 59.2183 51.1856C59.1434 51.0798 59.0864 50.9504 59.0474 50.7974C59.0083 50.6444 58.9888 50.4686 58.9888 50.2701V50.0699C58.9888 49.8713 59.0083 49.6963 59.0474 49.545C59.0864 49.392 59.1426 49.2642 59.2158 49.1617C59.2907 49.0575 59.381 48.9794 59.4868 48.9273C59.5926 48.8736 59.7131 48.8467 59.8481 48.8467C59.9832 48.8467 60.1045 48.8736 60.2119 48.9273C60.3193 48.9794 60.4097 49.0575 60.4829 49.1617C60.5578 49.2642 60.6139 49.392 60.6514 49.545C60.6904 49.6963 60.71 49.8713 60.71 50.0699Z" fill="#8E8F99"/>
        </symbol>
        <symbol id="cs2" viewBox="0 0 110 56" fill="none">
            <path fill-rule="evenodd" clip-rule="evenodd" d="M52.1135 4.93452H51.9769C51.7669 4.92181 51.557 4.91672 51.347 4.91163H51.347H51.3268H50.8917C50.4945 4.91163 50.0897 4.92181 49.6875 4.94215C49.6572 4.93994 49.6267 4.93994 49.5964 4.94215C45.9521 5.14863 42.3816 6.05951 39.0804 7.62492L38.6478 7.83344V29.9746L39.6597 29.6313C40.5476 29.3261 41.4937 29.0515 42.4727 28.7972C45.1192 28.1178 47.8366 27.7567 50.5678 27.7216V30.6306C50.2061 30.6332 49.8545 30.6434 49.5028 30.6612H49.4193C47.3174 30.7765 45.2315 31.0967 43.1912 31.6173C40.607 32.2643 38.1142 33.2357 35.7715 34.5086V6.11189C38.2046 4.69275 40.8252 3.62687 43.5554 2.94596C45.9526 2.32705 48.4168 2.00931 50.8917 2H51.3192C51.8302 2.01271 52.3285 2.0356 52.7965 2.0712C54.0296 2.15778 55.2527 2.35263 56.452 2.65353V5.51685C55.2873 5.24551 54.103 5.06695 52.9104 4.98284C52.8862 4.98079 52.862 4.97872 52.8377 4.97666C52.591 4.95561 52.3439 4.93452 52.1135 4.93452ZM57.1527 7.86163C57.7876 7.90994 58.4453 7.93283 59.1107 7.93283C61.7124 7.92332 64.303 7.59108 66.8238 6.94364C69.4067 6.29421 71.8985 5.32202 74.2409 4.0498V31.9405C71.8065 33.3587 69.1852 34.4246 66.4545 35.1064C64.057 35.7229 61.5929 36.0398 59.1182 36.0498C57.2432 36.0649 55.3736 35.8445 53.5529 35.3937V7.32253C53.9829 7.4217 54.4256 7.51325 54.8759 7.58954C55.6146 7.71414 56.3937 7.80568 57.1527 7.86163ZM71.3469 8.07778L70.335 8.41853C69.4041 8.7313 68.4656 9.01102 67.522 9.26023C64.7748 9.9662 61.9513 10.3283 59.1157 10.3384C58.4555 10.3384 57.8483 10.3206 57.2614 10.2825L56.4545 10.2291V30.3181V33.0059L57.1476 33.067C57.7901 33.1229 58.4529 33.1509 59.1208 33.1509C61.3543 33.1414 63.578 32.8536 65.7411 32.2939C67.5222 31.8472 69.2551 31.2245 70.9144 30.4351L71.3469 30.2265V8.07778Z" fill="#8E8F99"/>
            <path d="M37.7373 44.2121C37.5918 44.0613 37.4164 43.9428 37.2225 43.8644C37.0286 43.786 36.8204 43.7494 36.6115 43.757C36.3889 43.754 36.1679 43.7955 35.9614 43.879C35.772 43.9544 35.5999 44.0678 35.4554 44.2121C35.3126 44.3569 35.2014 44.5302 35.1291 44.7207C35.0498 44.9204 35.0103 45.1338 35.0127 45.3488V49.1428C35.0037 49.4102 35.0547 49.6762 35.162 49.921C35.2516 50.1154 35.3808 50.2887 35.5415 50.4296C35.6931 50.5572 35.8711 50.6493 36.0626 50.6991C36.2471 50.751 36.4377 50.7775 36.6292 50.7779C36.8405 50.7801 37.0497 50.7349 37.2414 50.6457C37.4311 50.5627 37.6029 50.4436 37.7474 50.2948C37.8883 50.1474 38.0006 49.9749 38.0788 49.7862C38.1599 49.5949 38.2012 49.3889 38.2002 49.181V48.7563H37.2085V49.0945C37.2115 49.21 37.1917 49.325 37.1504 49.4327C37.1181 49.5135 37.0689 49.5863 37.0062 49.6463C36.9447 49.696 36.8743 49.7331 36.7987 49.7557C36.7318 49.778 36.6618 49.79 36.5913 49.7913C36.5028 49.8016 36.4131 49.7882 36.3313 49.7525C36.2496 49.7168 36.1787 49.66 36.1258 49.5879C36.0323 49.4354 35.9865 49.2582 35.9943 49.0793V45.5421C35.9881 45.3459 36.0298 45.1513 36.1157 44.975C36.1672 44.8949 36.24 44.831 36.3259 44.7906C36.4118 44.7501 36.5072 44.7347 36.6014 44.7462C36.6869 44.7431 36.7718 44.761 36.8489 44.7982C36.926 44.8354 36.993 44.8908 37.0441 44.9598C37.1551 45.1054 37.2131 45.2849 37.2085 45.4683V45.7964H38.1901V45.4099C38.1921 45.1829 38.1509 44.9576 38.0686 44.7462C37.9954 44.5474 37.8826 44.3657 37.7373 44.2121Z" fill="#8E8F99"/>
            <path d="M43.6287 44.1691C43.3125 43.9021 42.9134 43.7546 42.5004 43.7521C42.2984 43.7529 42.0981 43.7891 41.9085 43.8589C41.7159 43.9279 41.5382 44.0332 41.3848 44.1691C41.2205 44.3168 41.0894 44.498 41.0003 44.7006C40.9004 44.9323 40.8512 45.183 40.8561 45.4355V49.0744C40.8493 49.3304 40.8985 49.5847 41.0003 49.8195C41.09 50.0151 41.2213 50.1887 41.3848 50.328C41.5364 50.4688 41.7144 50.5777 41.9085 50.6485C42.0981 50.7183 42.2984 50.7544 42.5004 50.7553C42.7024 50.7549 42.9028 50.7187 43.0924 50.6485C43.2897 50.5767 43.4717 50.468 43.6287 50.328C43.7869 50.1861 43.9143 50.013 44.0031 49.8195C44.1049 49.5847 44.1541 49.3304 44.1473 49.0744V45.4355C44.1521 45.183 44.103 44.9323 44.0031 44.7006C43.9148 44.5001 43.7875 44.3194 43.6287 44.1691ZM43.1657 49.0744C43.1741 49.1714 43.1607 49.269 43.1266 49.3601C43.0924 49.4512 43.0384 49.5334 42.9684 49.6008C42.8374 49.7106 42.6723 49.7708 42.5017 49.7708C42.3311 49.7708 42.1659 49.7106 42.0349 49.6008C41.965 49.5334 41.911 49.4512 41.8768 49.3601C41.8427 49.269 41.8293 49.1714 41.8376 49.0744V45.4355C41.8293 45.3385 41.8427 45.2409 41.8768 45.1498C41.911 45.0587 41.965 44.9764 42.0349 44.9091C42.1659 44.7993 42.3311 44.7391 42.5017 44.7391C42.6723 44.7391 42.8374 44.7993 42.9684 44.9091C43.0384 44.9764 43.0924 45.0587 43.1266 45.1498C43.1607 45.2409 43.1741 45.3385 43.1657 45.4355V49.0744Z" fill="#8E8F99"/>
            <path d="M51.367 50.6994V43.8107H50.4133L49.1611 47.4572H49.1434L47.8811 43.8107H46.9375V50.6994H47.9216V46.5087H47.9393L48.9031 49.4712H49.3939L50.3653 46.5087H50.383V50.6994H51.367Z" fill="#8E8F99"/>
            <path d="M56.9577 44.2937C56.8062 44.1237 56.6149 43.9943 56.4011 43.9173C56.1708 43.8424 55.9298 43.8063 55.6878 43.8105H54.2256V50.6993H55.2071V48.0089H55.7131C56.0193 48.0228 56.324 47.958 56.5985 47.8207C56.8216 47.6968 57.0077 47.515 57.1373 47.2943C57.2508 47.1111 57.3274 46.9071 57.3624 46.6942C57.4011 46.435 57.4188 46.173 57.4156 45.911C57.4251 45.5802 57.3928 45.2495 57.3194 44.9269C57.254 44.6885 57.1295 44.4706 56.9577 44.2937ZM56.4517 46.3941C56.4475 46.5188 56.4164 46.6412 56.3607 46.7527C56.3046 46.8586 56.2158 46.9434 56.1077 46.9942C55.9623 47.0593 55.8037 47.0889 55.6448 47.0807H55.197V44.7387H55.7029C55.8553 44.7312 56.0072 44.7609 56.1456 44.8251C56.2471 44.8834 56.3277 44.9724 56.3759 45.0794C56.4295 45.2004 56.4587 45.331 56.4619 45.4634C56.4619 45.6084 56.4619 45.7609 56.4619 45.9211C56.4619 46.0813 56.472 46.2466 56.4619 46.3941H56.4517Z" fill="#8E8F99"/>
            <path d="M61.6074 43.8107H60.803L59.2852 50.6994H60.2667L60.5551 49.2194H61.8933L62.1817 50.6994H63.1632L61.6074 43.8107ZM60.7018 48.2811L61.185 45.784H61.2027L61.6833 48.2811H60.7018Z" fill="#8E8F99"/>
            <path d="M67.9496 47.9607H67.9319L66.4494 43.8107H65.5059V50.6994H66.4874V46.557H66.5076L68.0078 50.6994H68.9311V43.8107H67.9496V47.9607Z" fill="#8E8F99"/>
            <path d="M73.9471 43.8107L73.1578 46.5494H73.1376L72.3483 43.8107H71.3086L72.6569 47.7878V50.6994H73.6385V47.7878L74.9868 43.8107H73.9471Z" fill="#8E8F99"/>
            <path d="M35 52.6443H35.4731V53.9717H35.7943V52.6443H36.2649V52.3722H35V52.6443Z" fill="#8E8F99"/>
            <path d="M38.9772 52.3722L38.3574 53.9717H38.6989L38.8305 53.608H39.468L39.6046 53.9717H39.9537L39.3187 52.3722H38.9772ZM38.9266 53.3385L39.1442 52.746L39.3617 53.3385H38.9266Z" fill="#8E8F99"/>
            <path d="M42.9084 53.3821H43.2778V53.5881C43.1699 53.6746 43.0362 53.722 42.8983 53.7229C42.8338 53.7265 42.7693 53.7145 42.7104 53.688C42.6514 53.6614 42.5996 53.6211 42.5593 53.5703C42.4745 53.4485 42.4327 53.3017 42.4404 53.1533C42.4404 52.7973 42.5947 52.6193 42.9008 52.6193C42.9814 52.6112 43.0622 52.6325 43.1285 52.6791C43.1949 52.7257 43.2424 52.7947 43.2626 52.8735L43.5788 52.8125C43.5105 52.4997 43.2853 52.3421 42.9008 52.3421C42.6952 52.3366 42.4952 52.4103 42.3418 52.5481C42.2612 52.6276 42.1988 52.7239 42.1591 52.8302C42.1193 52.9365 42.1031 53.0502 42.1116 53.1634C42.1022 53.3823 42.1754 53.5966 42.3165 53.7636C42.3948 53.8444 42.4897 53.9071 42.5945 53.9475C42.6993 53.9879 42.8116 54.0049 42.9236 53.9975C43.1739 54.0045 43.417 53.9133 43.6016 53.7432V53.1126H42.9084V53.3821Z" fill="#8E8F99"/>
            <path d="M46.9224 52.3722H46.5986V53.9717H47.7193V53.6996H46.9224V52.3722Z" fill="#8E8F99"/>
            <path d="M50.3179 52.3722H49.9941V53.9717H50.3179V52.3722Z" fill="#8E8F99"/>
            <path d="M53.6369 53.4402L52.9817 52.3722H52.668V53.9717H52.969V52.9265L53.6116 53.9717H53.9328V52.3722H53.6369V53.4402Z" fill="#8E8F99"/>
            <path d="M56.6363 53.2673H57.4332V52.9952H56.6363V52.6443H57.4939V52.3722H56.3125V53.9717H57.5268V53.6996H56.6363V53.2673Z" fill="#8E8F99"/>
            <path d="M63.9121 53.0028H63.2822V52.3722H62.9609V53.9717H63.2822V53.2724H63.9121V53.9717H64.2334V52.3722H63.9121V53.0028Z" fill="#8E8F99"/>
            <path d="M66.9306 53.2673H67.73V52.9952H66.9306V52.6443H67.7908V52.3722H66.6094V53.9717H67.8211V53.6996H66.9306V53.2673Z" fill="#8E8F99"/>
            <path d="M71.0235 53.2676C71.3018 53.2244 71.4434 53.0769 71.4434 52.8226C71.4515 52.7546 71.4412 52.6856 71.4136 52.623C71.386 52.5603 71.3421 52.5063 71.2866 52.4666C71.1417 52.3938 70.9801 52.3614 70.8186 52.3725H70.1406V53.972H70.4619V53.3032H70.5251C70.5936 53.299 70.6621 53.3112 70.725 53.3388C70.772 53.3678 70.8111 53.4079 70.8388 53.4558L71.1879 53.9644H71.5724L71.3777 53.6516C71.2916 53.4972 71.1702 53.3656 71.0235 53.2676ZM70.6997 53.0464H70.4619V52.6446H70.7149C70.8251 52.6357 70.936 52.6486 71.0412 52.6827C71.0646 52.7034 71.0831 52.7291 71.0952 52.7579C71.1074 52.7867 71.113 52.8179 71.1115 52.8492C71.11 52.8804 71.1016 52.911 71.0868 52.9385C71.072 52.966 71.0512 52.9899 71.026 53.0082C70.9204 53.0406 70.8099 53.0535 70.6997 53.0464Z" fill="#8E8F99"/>
            <path d="M74.1099 53.2673H74.9068V52.9952H74.1099V52.6443H74.97V52.3722H73.7861V53.9717H75.0004V53.6996H74.1099V53.2673Z" fill="#8E8F99"/>
        </symbol>
        <symbol id="cs3" viewBox="0 0 110 56" fill="none">
            <path d="M39.8103 48.2234C39.8264 48.2238 39.8423 48.2269 39.857 48.2325C39.8717 48.2382 39.8849 48.2463 39.8959 48.2564L40.1167 48.464C39.9453 48.632 39.7334 48.7664 39.4956 48.8579C39.2171 48.9578 38.917 49.006 38.6151 48.9994C38.3314 49.0044 38.0495 48.9595 37.787 48.8673C37.5502 48.7827 37.3374 48.6556 37.1631 48.4946C36.9852 48.3277 36.8482 48.132 36.7601 47.9191C36.6637 47.6818 36.616 47.432 36.6193 47.1808C36.6154 46.928 36.6669 46.6768 36.7712 46.4401C36.8676 46.2259 37.0131 46.0302 37.199 45.8646C37.3875 45.7022 37.613 45.5745 37.8615 45.4895C38.1334 45.3995 38.4229 45.3546 38.7145 45.3574C38.9853 45.3518 39.2547 45.3927 39.5067 45.4777C39.7253 45.5588 39.926 45.6713 40.1001 45.8103L39.9152 46.0321C39.9024 46.0477 39.8865 46.0612 39.8683 46.0722C39.8465 46.0849 39.8201 46.0908 39.7937 46.0887C39.7651 46.087 39.7375 46.0788 39.7137 46.0651L39.6143 46.0061L39.4763 45.9306C39.4167 45.9026 39.3549 45.8782 39.2914 45.8575C39.2095 45.8325 39.1255 45.8128 39.0402 45.7985C38.9318 45.7815 38.8218 45.7736 38.7117 45.775C38.5017 45.7727 38.2934 45.8064 38.0989 45.874C37.9175 45.9367 37.7538 46.0315 37.6186 46.1524C37.481 46.2809 37.3749 46.4317 37.3067 46.5958C37.2289 46.7836 37.1906 46.9816 37.1935 47.1808C37.1902 47.3831 37.2285 47.5843 37.3067 47.7752C37.374 47.938 37.4781 48.0878 37.6131 48.2163C37.7395 48.3361 37.8962 48.4297 38.0713 48.4899C38.2515 48.5538 38.4449 48.5859 38.6399 48.5843C38.7526 48.5858 38.8652 48.5795 38.9767 48.5654C39.1587 48.5464 39.3333 48.4924 39.4873 48.4074C39.5646 48.3638 39.6375 48.3149 39.7054 48.2611C39.7338 48.238 39.7711 48.2246 39.8103 48.2234Z" fill="#8E8F99"/>
            <path d="M46.1862 47.1807C46.1896 47.4309 46.1391 47.6796 46.0371 47.9142C45.9472 48.127 45.8055 48.3211 45.6213 48.4837C45.4372 48.6463 45.2148 48.7738 44.9689 48.8576C44.4285 49.0338 43.8311 49.0338 43.2906 48.8576C43.0462 48.7725 42.8253 48.6448 42.6419 48.4826C42.4579 48.317 42.3152 48.1212 42.2224 47.9071C42.0235 47.432 42.0235 46.9128 42.2224 46.4377C42.3165 46.2234 42.4591 46.0271 42.6419 45.8598C42.8269 45.7028 43.0477 45.5799 43.2906 45.499C43.8304 45.3197 44.4291 45.3197 44.9689 45.499C45.2141 45.5841 45.4359 45.7118 45.6203 45.874C45.802 46.0379 45.9437 46.2312 46.0371 46.4424C46.1394 46.6786 46.1899 46.9288 46.1862 47.1807ZM45.6065 47.1807C45.6109 46.9805 45.5754 46.7811 45.5016 46.591C45.4398 46.4282 45.3392 46.278 45.2063 46.1499C45.0769 46.0288 44.9175 45.9337 44.7398 45.8716C44.3471 45.7427 43.9124 45.7427 43.5197 45.8716C43.342 45.9337 43.1827 46.0288 43.0532 46.1499C42.9184 46.2773 42.8168 46.4276 42.7551 46.591C42.6147 46.975 42.6147 47.3864 42.7551 47.7703C42.8174 47.9335 42.919 48.0837 43.0532 48.2114C43.1828 48.3318 43.3422 48.4261 43.5197 48.4873C43.9131 48.613 44.3464 48.613 44.7398 48.4873C44.9173 48.4261 45.0767 48.3318 45.2063 48.2114C45.3386 48.083 45.4391 47.9329 45.5016 47.7703C45.5757 47.5803 45.6112 47.3809 45.6065 47.1807Z" fill="#8E8F99"/>
            <path d="M50.5368 47.7987L50.5947 47.9308C50.6168 47.8836 50.6361 47.8412 50.6582 47.7987C50.6793 47.7544 50.7032 47.7111 50.73 47.669L52.1405 45.4781C52.1681 45.4404 52.193 45.4168 52.2206 45.4097C52.2581 45.4 52.2974 45.396 52.3365 45.3979H52.7533V48.9614H52.2592V46.3413C52.2592 46.3083 52.2592 46.2705 52.2592 46.2304C52.2566 46.1896 52.2566 46.1486 52.2592 46.1078L50.8404 48.3293C50.8224 48.3626 50.7936 48.3908 50.7573 48.4104C50.7211 48.4301 50.679 48.4404 50.6361 48.4402H50.5561C50.5131 48.4407 50.4709 48.4305 50.4346 48.4108C50.3983 48.3911 50.3695 48.3628 50.3518 48.3293L48.8916 46.0937C48.8916 46.1361 48.8916 46.1786 48.8916 46.221C48.8916 46.2635 48.8916 46.3012 48.8916 46.3342V48.9543H48.4141V45.3979H48.8309C48.87 45.396 48.9093 45.4 48.9468 45.4097C48.981 45.4242 49.0083 45.4484 49.0241 45.4781L50.465 47.6714C50.4933 47.7119 50.5173 47.7545 50.5368 47.7987Z" fill="#8E8F99"/>
            <path d="M55.845 47.6217V48.9564H55.293V45.3978H56.5241C56.7565 45.394 56.9882 45.4202 57.2114 45.4756C57.3901 45.5189 57.5558 45.5945 57.6972 45.6973C57.8198 45.7937 57.9144 45.9132 57.9733 46.0463C58.0384 46.1915 58.0703 46.346 58.0671 46.5015C58.0695 46.6576 58.0348 46.8124 57.965 46.9566C57.8986 47.0932 57.7967 47.215 57.6669 47.3127C57.5252 47.4198 57.3587 47.5002 57.1783 47.5486C56.9634 47.6072 56.7386 47.6351 56.513 47.6311L55.845 47.6217ZM55.845 47.2396H56.513C56.6581 47.2412 56.8026 47.2229 56.9409 47.1854C57.055 47.1526 57.1601 47.1005 57.2501 47.0321C57.333 46.9668 57.3972 46.8862 57.4378 46.7963C57.4829 46.7012 57.5055 46.5994 57.504 46.4968C57.5104 46.3978 57.4915 46.2989 57.4486 46.2069C57.4057 46.1148 57.3398 46.0319 57.2556 45.9638C57.0447 45.8231 56.7798 45.755 56.513 45.7728H55.845V47.2396Z" fill="#8E8F99"/>
            <path d="M63.2641 48.9613H62.828C62.7842 48.9627 62.7413 48.951 62.7065 48.9282C62.6752 48.906 62.6506 48.8777 62.6348 48.8457L62.2594 47.9848H60.374L59.9848 48.8457C59.9705 48.8772 59.9467 48.9048 59.9158 48.9259C59.8807 48.95 59.8366 48.9626 59.7916 48.9613H59.3555L61.0117 45.3975H61.5858L63.2641 48.9613ZM60.5314 47.6381H62.0882L61.4312 46.1876C61.381 46.0785 61.3395 45.9666 61.307 45.8527L61.2435 46.039C61.2242 46.0956 61.2021 46.1475 61.1828 46.1899L60.5314 47.6381Z" fill="#8E8F99"/>
            <path d="M65.6498 45.414C65.6828 45.4295 65.7111 45.4513 65.7326 45.4777L68.1479 48.1641C68.1479 48.1216 68.1479 48.0792 68.1479 48.0391C68.1479 47.999 68.1479 47.9589 68.1479 47.9212V45.3975H68.642V48.9613H68.366C68.3268 48.9623 68.2879 48.955 68.2528 48.9401C68.2187 48.9231 68.1887 48.9007 68.1645 48.874L65.7519 46.19C65.7546 46.2309 65.7546 46.2718 65.7519 46.3126C65.7519 46.3527 65.7519 46.3881 65.7519 46.4211V48.9613H65.2578V45.3975H65.5504C65.5846 45.3967 65.6185 45.4024 65.6498 45.414Z" fill="#8E8F99"/>
            <path d="M72.7104 47.5443V48.9594H72.1583V47.5443L70.6318 45.398H71.1259C71.1685 45.3959 71.2106 45.4067 71.2446 45.4287C71.2747 45.4516 71.2999 45.4787 71.3192 45.5089L72.2743 46.8933C72.3129 46.9523 72.346 47.0065 72.3736 47.0584C72.4012 47.1103 72.4233 47.1598 72.4426 47.2094L72.5144 47.0561C72.5412 47 72.5726 46.9456 72.6083 46.8933L73.5495 45.4994C73.5693 45.4716 73.5935 45.4462 73.6213 45.424C73.6541 45.3995 73.6966 45.3868 73.74 45.3886H74.2396L72.7104 47.5443Z" fill="#8E8F99"/>
            <path d="M50.2637 39.4169C50.5038 39.4429 50.7467 39.4641 50.9924 39.4829C54.717 38.0594 57.8678 35.7294 60.051 32.7843C62.2343 29.8392 63.3532 26.4096 63.2677 22.9242L59.1631 19.4171C59.9976 23.128 59.6073 26.9641 58.0356 30.4962C56.4639 34.0283 53.7729 37.1171 50.2637 39.4169Z" fill="#8E8F99"/>
            <path d="M48.7979 39.2542L48.9083 39.273C52.6582 36.9813 55.5172 33.7812 57.1155 30.0863C58.7138 26.3915 58.978 22.3719 57.8739 18.5475L52.0275 13.5524C54.3922 17.6582 55.344 22.2533 54.7723 26.8032C54.2006 31.353 52.1288 35.6708 48.7979 39.2542Z" fill="#8E8F99"/>
            <path d="M68.6256 27.0426C67.6323 30.8722 65.22 34.3261 61.7468 36.8914C60.7324 37.6447 59.6383 38.3158 58.4785 38.896C61.3067 38.1858 63.9062 36.9301 66.0766 35.2258C68.247 33.5215 69.9303 31.4141 70.9967 29.0661L68.6256 27.0426Z" fill="#8E8F99"/>
            <path d="M67.6952 26.4786L64.3193 23.5942C64.2547 26.8828 63.1605 30.0965 61.1504 32.9015C59.1402 35.7065 56.2875 38.0002 52.8887 39.5445H52.9052C53.6627 39.5442 54.4194 39.5056 55.1715 39.4289C58.3479 38.3212 61.1539 36.5589 63.3391 34.2992C65.5244 32.0395 67.0209 29.3527 67.6952 26.4786Z" fill="#8E8F99"/>
            <path d="M49.2861 11.4457L45.2587 8C41.6584 9.18869 38.562 11.2784 36.3747 13.9955C34.1875 16.7127 33.0112 19.9308 33 23.2286V23.2286C33.0135 26.8725 34.449 30.4085 37.0793 33.277C39.7096 36.1454 43.3845 38.1824 47.5222 39.0656C51.216 35.2206 53.3786 30.4694 53.6958 25.5024C54.013 20.5353 52.4683 15.6113 49.2861 11.4457Z" fill="#8E8F99"/>
            <path d="M76.9999 25.9477C76.9853 21.6244 74.9687 17.4817 71.3907 14.4246C67.8126 11.3675 62.9639 9.64453 57.9038 9.63209C55.5656 9.63002 53.2472 9.99867 51.0664 10.7193L75.7246 31.7872C76.5689 29.9249 77.0013 27.9449 76.9999 25.9477Z" fill="#8E8F99"/>
        </symbol>
        <symbol id="cs5" viewBox="0 0 110 56" fill="none">
            <path d="M28.6298 43.6064C28.8752 43.8799 29.006 44.2225 28.9992 44.5741C29.0117 44.8034 28.9667 45.0323 28.8677 45.2439C28.7686 45.4555 28.6179 45.6443 28.4268 45.7964C27.9499 46.1206 27.3592 46.2791 26.7629 46.2427H23.8379V40.1103H26.703C27.2686 40.0765 27.8297 40.2205 28.2904 40.5178C28.4754 40.6572 28.6219 40.8334 28.7183 41.0325C28.8148 41.2316 28.8585 41.4482 28.8461 41.6651C28.8629 42.0034 28.7449 42.336 28.5133 42.6028C28.291 42.8465 27.9838 43.0154 27.6415 43.0822C28.0295 43.1459 28.3798 43.3317 28.6298 43.6064ZM25.1989 42.6807H26.4235C26.7018 42.6993 26.9783 42.6269 27.2022 42.477C27.2941 42.402 27.3657 42.3089 27.4113 42.205C27.4569 42.1011 27.4753 41.9892 27.4651 41.8778C27.4737 41.7669 27.4549 41.6556 27.41 41.552C27.3652 41.4484 27.2953 41.3551 27.2055 41.2787C26.9749 41.1245 26.6899 41.0511 26.4035 41.072H25.1989V42.6807ZM27.322 45.0324C27.4203 44.9556 27.4975 44.8595 27.5478 44.7514C27.598 44.6433 27.6198 44.5262 27.6115 44.4093C27.619 44.291 27.5962 44.1728 27.5448 44.0637C27.4935 43.9546 27.415 43.8576 27.3153 43.7802C27.0757 43.6203 26.7811 43.5418 26.4834 43.5585H25.1989V45.2451H26.5C26.7929 45.2603 27.0828 45.1853 27.322 45.0324Z" fill="#8E8F99"/>
            <path d="M34.4868 46.2427L32.8928 43.8461H32.2939V46.2427H30.9229V40.1103H33.5185C34.1727 40.0692 34.8195 40.2558 35.3254 40.6316C35.6882 40.9644 35.9071 41.403 35.9425 41.8682C35.9779 42.3335 35.8275 42.7948 35.5184 43.169C35.1982 43.4993 34.7607 43.7195 34.2805 43.7922L35.9776 46.2427H34.4868ZM32.2939 43.0103H33.4153C34.194 43.0103 34.5833 42.7007 34.5833 42.0816C34.5913 41.9551 34.5699 41.8286 34.5207 41.71C34.4714 41.5914 34.3953 41.4833 34.2971 41.3925C34.0511 41.2083 33.7342 41.1189 33.4153 41.1439H32.2806L32.2939 43.0103Z" fill="#8E8F99"/>
            <path d="M41.9802 45.0086H39.2482L38.7657 46.2428H37.3281L39.8372 40.1793H41.3912L43.8903 46.2428H42.4528L41.9802 45.0086ZM41.6142 44.0799L40.6159 41.4915L39.6176 44.0799H41.6142Z" fill="#8E8F99"/>
            <path d="M51.361 46.2428H50L46.9485 42.0726V46.2428H45.5908V40.1104H46.9485L50 44.3045V40.1104H51.361V46.2428Z" fill="#8E8F99"/>
            <path d="M59.1278 44.7749C58.8464 45.2378 58.4176 45.6145 57.8965 45.8563C57.3041 46.1257 56.6466 46.2585 55.9831 46.2428H53.5605V40.1104H55.9831C56.6455 40.0948 57.3021 40.2244 57.8965 40.4879C58.4175 40.7242 58.8468 41.0971 59.1278 41.5574C59.4079 42.0561 59.5539 42.6072 59.5539 43.1661C59.5539 43.725 59.4079 44.2761 59.1278 44.7749ZM57.5704 44.6281C57.9589 44.2207 58.1724 43.7015 58.1724 43.1646C58.1724 42.6277 57.9589 42.1086 57.5704 41.7012C57.1009 41.3322 56.4887 41.1448 55.8666 41.1799H54.9216V45.1493H55.8666C56.4887 45.1844 57.1009 44.9971 57.5704 44.6281Z" fill="#8E8F99"/>
            <path d="M42.832 6.00012C42.832 6.00012 60.399 11.9708 60.0263 20.6107V35.2242C60.0263 35.2242 42.4726 29.2506 42.8387 20.6107L42.832 6.00012Z" fill="#8E8F99"/>
            <path d="M75.6768 31.8028C78.9944 29.7473 82.832 28.4742 86.8379 28.1V23.5254C82.2221 25.1269 78.3065 28.0309 75.6768 31.8028Z" fill="#8E8F99"/>
            <path d="M73.6832 33.1812C76.3987 28.2587 81.1063 24.4602 86.8376 22.567V9.3855C86.8376 9.3855 61.82 17.8906 62.3491 30.1943V51.0002C62.3491 51.0002 63.4639 50.6197 65.2176 49.9067C65.2176 49.2417 65.2176 48.5706 65.2974 47.8965C65.8152 42.1845 68.8315 36.8915 73.6832 33.1812Z" fill="#8E8F99"/>
            <path d="M71.3043 40.9103C71.4358 39.4674 71.729 38.0401 72.1795 36.6503C69.1585 39.8545 67.3291 43.8305 66.9484 48.0193C66.9118 48.4148 66.8918 48.8102 66.8818 49.2177C68.3028 48.6035 69.9566 47.8366 71.6937 46.9349C71.2504 44.9531 71.1193 42.925 71.3043 40.9103Z" fill="#8E8F99"/>
            <path d="M72.2996 40.9853C72.1331 42.808 72.2371 44.6426 72.6091 46.4406C79.4442 42.7588 87.1245 37.0697 86.8284 30.1944V29.5952C81.9449 30.0871 77.376 32.009 73.8237 35.0655C72.992 36.9597 72.4783 38.9548 72.2996 40.9853Z" fill="#8E8F99"/>
        </symbol>
        <symbol id="cs6" viewBox="0 0 110 56" fill="none">
            <path d="M55.3926 26.6767C54.9486 26.0858 54.7362 25.3876 54.7866 24.6847V21.7966C54.7866 20.9113 54.9875 20.2385 55.3892 19.7782C55.791 19.3179 56.481 19.0888 57.4593 19.0907C58.3786 19.0907 59.0311 19.2866 59.417 19.6783C59.8379 20.1781 60.0427 20.7894 59.9958 21.4059V22.0846H58.3513V21.3971C58.3572 21.172 58.3412 20.947 58.3037 20.7243C58.28 20.572 58.1972 20.4311 58.0687 20.3247C57.8999 20.21 57.6871 20.1544 57.4729 20.169C57.2476 20.1545 57.0242 20.2131 56.8464 20.3335C56.7032 20.4514 56.6077 20.6059 56.5741 20.7742C56.5269 21.0099 56.5052 21.2489 56.5094 21.4881V24.9932C56.4834 25.3313 56.556 25.6697 56.7205 25.9774C56.8023 26.0816 56.9158 26.1641 57.0486 26.216C57.1814 26.2678 57.3283 26.287 57.4729 26.2712C57.6836 26.2862 57.8926 26.2292 58.0551 26.1126C58.1891 25.9978 58.2753 25.848 58.3003 25.6866C58.3387 25.454 58.3557 25.2192 58.3513 24.9844V24.2734H59.9958V24.9227C60.042 25.5653 59.8422 26.2033 59.4272 26.7384C59.0493 27.1673 58.4058 27.3818 57.4593 27.3818C56.5128 27.3818 55.7978 27.1527 55.3926 26.6767Z" fill="#8E8F99"/>
            <path d="M62.2393 26.7061C61.8239 26.2566 61.6162 25.6014 61.6162 24.7347V21.6967C61.6162 20.8388 61.8239 20.1895 62.2393 19.7488C62.6546 19.3081 63.3492 19.0888 64.3229 19.0907C65.2898 19.0907 65.981 19.3101 66.3963 19.7488C66.8117 20.1895 67.0228 20.8388 67.0228 21.6967V24.7347C67.0228 25.5926 66.8117 26.2507 66.3895 26.7031C65.9674 27.1556 65.2796 27.3818 64.3229 27.3818C63.3662 27.3818 62.658 27.1527 62.2393 26.7061ZM65.089 25.9774C65.2377 25.6959 65.3055 25.3874 65.2864 25.0784V21.3589C65.3055 21.0558 65.2389 20.7533 65.0924 20.4775C65.0089 20.3711 64.8926 20.2872 64.7565 20.2353C64.6204 20.1833 64.4702 20.1654 64.3229 20.1837C64.1752 20.1659 64.0246 20.184 63.8881 20.2359C63.7516 20.2878 63.6346 20.3714 63.5501 20.4775C63.4003 20.7525 63.3325 21.0555 63.3526 21.3589V25.096C63.3319 25.4052 63.3997 25.7139 63.5501 25.9951C63.6459 26.0898 63.7642 26.1658 63.8969 26.2179C64.0296 26.2699 64.1737 26.2968 64.3195 26.2968C64.4653 26.2968 64.6094 26.2699 64.7421 26.2179C64.8748 26.1658 64.9931 26.0898 65.089 25.9951V25.9774Z" fill="#8E8F99"/>
            <path d="M69.0008 19.1794H70.7713L72.1025 24.7846L73.4644 19.1794H75.1872L75.3608 27.2699H74.0875L73.9513 21.6471L72.6371 27.2699H71.6157L70.2538 21.6265L70.1278 27.2699H68.8408L69.0008 19.1794Z" fill="#8E8F99"/>
            <path d="M77.3462 19.1794H80.1039C81.6928 19.1794 82.4872 19.9452 82.4872 21.4767C82.4872 22.9436 81.6508 23.6761 79.978 23.6741H79.0383V27.2699H77.3359L77.3462 19.1794ZM79.7022 22.6371C79.8704 22.6555 80.0412 22.6422 80.2029 22.5981C80.3645 22.554 80.5131 22.4801 80.6385 22.3815C80.8337 22.1083 80.9198 21.7874 80.8836 21.4679C80.8925 21.2211 80.865 20.9743 80.8019 20.7335C80.7776 20.653 80.735 20.5776 80.6765 20.5115C80.6181 20.4454 80.5449 20.3901 80.4614 20.3486C80.2251 20.2508 79.9639 20.2064 79.7022 20.2194H79.0417V22.6371H79.7022Z" fill="#8E8F99"/>
            <path d="M84.9424 19.1794H86.7707L88.6466 27.2699H87.0601L86.689 25.4044H85.0581L84.6768 27.2699H83.0664L84.9424 19.1794ZM86.5051 24.4673L85.8684 21.0713L85.2318 24.4673H86.5051Z" fill="#8E8F99"/>
            <path d="M90.1616 19.1794H91.3533L93.6344 23.7946V19.1794H95.0474V27.2699H93.9136L91.6188 22.452V27.2699H90.1582L90.1616 19.1794Z" fill="#8E8F99"/>
            <path d="M98.3564 24.185L96.46 19.1907H98.0568L99.2143 22.3988L100.3 19.1907H101.863L99.9906 24.185V27.2697H98.3564V24.185Z" fill="#8E8F99"/>
            <path d="M58.0215 30.807V31.2301H56.6324V34.5176H56.0502V31.2301H54.6543V30.807H58.0215Z" fill="#8E8F99"/>
            <path d="M62.376 34.5178H61.9266C61.8809 34.5203 61.8359 34.5077 61.8006 34.4826C61.7666 34.461 61.7406 34.4315 61.7257 34.3974L61.3239 33.5161H59.3968L58.9951 34.3974C58.9837 34.4343 58.9627 34.4684 58.9338 34.4973C58.8982 34.5219 58.8534 34.5344 58.8078 34.5325H58.3584L60.0608 30.8221H60.6532L62.376 34.5178ZM59.5569 33.14H61.1639L60.483 31.63C60.4327 31.5158 60.3906 31.3991 60.357 31.2804C60.3331 31.3509 60.3127 31.4185 60.2923 31.4773L60.231 31.633L59.5569 33.14Z" fill="#8E8F99"/>
            <path d="M65.3105 34.1536C65.4171 34.1584 65.5239 34.1584 65.6305 34.1536C65.7226 34.1454 65.8137 34.1306 65.9029 34.1095C65.9863 34.0918 66.0682 34.0693 66.148 34.0419C66.2229 34.0155 66.2978 33.9832 66.3762 33.9508V33.1164H65.6952C65.6784 33.1172 65.6615 33.115 65.6457 33.11C65.6299 33.1049 65.6154 33.0971 65.6033 33.087C65.5921 33.0787 65.5833 33.0683 65.5774 33.0566C65.5715 33.0449 65.5687 33.0322 65.5692 33.0194V32.7344H66.8903V34.1565C66.7824 34.2231 66.6686 34.282 66.5498 34.3328C66.4284 34.3845 66.3019 34.4268 66.1719 34.4591C66.0326 34.4945 65.8903 34.52 65.7463 34.5355C65.5812 34.5513 65.4153 34.5592 65.2492 34.559C64.9556 34.5612 64.6642 34.5143 64.3912 34.4209C64.1363 34.3325 63.9047 34.2006 63.7103 34.0331C63.5207 33.8639 63.3715 33.6643 63.2711 33.4455C63.1638 33.1995 63.1106 32.9384 63.1144 32.6757C63.1109 32.4112 63.1628 32.1485 63.2677 31.9C63.3656 31.6801 63.5151 31.48 63.7069 31.3124C63.9012 31.1454 64.1329 31.0144 64.3878 30.9274C64.6794 30.8328 64.9888 30.786 65.3003 30.7894C65.4588 30.7892 65.617 30.8 65.7735 30.8217C65.9119 30.8411 66.0477 30.8726 66.1787 30.9157C66.2978 30.9543 66.4119 31.0035 66.5192 31.0626C66.6235 31.1206 66.7225 31.1854 66.8154 31.2565L66.6519 31.4857C66.6391 31.5066 66.6201 31.5242 66.5967 31.5366C66.5734 31.549 66.5466 31.5558 66.5192 31.5562C66.4815 31.5552 66.4449 31.545 66.4136 31.5268C66.3625 31.5033 66.3081 31.4739 66.2468 31.4387C66.1744 31.3995 66.098 31.3661 66.0187 31.3388C65.9172 31.3037 65.8124 31.2761 65.7054 31.2565C65.5628 31.2339 65.418 31.223 65.273 31.2242C65.0484 31.2221 64.8254 31.257 64.6159 31.327C64.4265 31.3926 64.2557 31.4929 64.1154 31.6209C63.9743 31.7542 63.8665 31.9113 63.7988 32.0822C63.6467 32.484 63.6467 32.9172 63.7988 33.3191C63.8733 33.4936 63.9893 33.6528 64.1393 33.7863C64.2789 33.9136 64.4484 34.0138 64.6364 34.0801C64.8528 34.1442 65.0823 34.1693 65.3105 34.1536Z" fill="#8E8F99"/>
            <path d="M70.7375 34.0945H72.5965V34.5176H70.1689V30.807H70.7512L70.7375 34.0945Z" fill="#8E8F99"/>
            <path d="M74.5305 34.5176H73.9482V30.807H74.5305V34.5176Z" fill="#8E8F99"/>
            <path d="M76.6962 30.8247C76.7308 30.8417 76.7609 30.8647 76.7847 30.8923L79.2735 33.6893C79.2701 33.6453 79.2701 33.6011 79.2735 33.5571C79.2735 33.516 79.2735 33.4748 79.2735 33.4366V30.7924H79.7808V34.5179H79.488C79.4446 34.5209 79.4011 34.5138 79.362 34.4973C79.3267 34.4788 79.2955 34.4549 79.2701 34.4268L76.7847 31.6327C76.7847 31.6767 76.7847 31.7179 76.7847 31.759C76.7847 31.8001 76.7847 31.8383 76.7847 31.8736V34.5179H76.2979V30.807H76.6009C76.6337 30.8071 76.6662 30.8131 76.6962 30.8247Z" fill="#8E8F99"/>
            <path d="M84.0667 30.807V31.2154H82.0035V32.4405H83.6752V32.8342H82.0035V34.1005H84.0667V34.5088H81.4043V30.807H84.0667Z" fill="#8E8F99"/>
            <path d="M23.0585 7.89211L48.9103 14.2261V36.4217L23.0585 30.0906V7.89211ZM21.4004 6.00012V31.1688L50.565 38.3166V13.1509L21.4004 6.00012Z" fill="#8E8F99"/>
            <path d="M37.0313 50.0001L7.86328 42.8463V17.6803L37.0313 24.8311V50.0001Z" fill="#8E8F99"/>
            <path d="M21.8838 7.60711L47.3985 13.8617L36.5478 23.2275L11.0296 16.9699L21.8838 7.60711ZM21.4003 6.00012L7.86328 17.6809L37.0312 24.8315L50.5649 13.1508L21.4003 6.00012Z" fill="#8E8F99"/>
            <path d="M38.6719 48.5843L50.5644 38.3197L38.6719 35.4025V48.5843Z" fill="#8E8F99"/>
        </symbol>
        <symbol id="icon-youtube2" viewBox="0 0 80 32">
            <path d="M10.75 5.294c0.007-0.027 0.011-0.046 0.012-0.056l0.033-0.236-1.48-0.008c-1.337-0.008-1.746 0-1.783 0.034-0.018 0.016-0.479 1.77-1.302 4.946-0.392 1.515-0.723 2.725-0.734 2.689s-0.481-1.766-1.044-3.843c-0.563-2.078-1.034-3.789-1.048-3.803-0.019-0.019-1.812-0.028-3.263-0.016-0.21 0.002-0.327-0.41 1.876 6.598 0.305 0.97 0.762 2.344 1.015 3.052 0.292 0.817 0.5 1.448 0.642 1.974 0.251 1.002 0.26 1.63 0.205 2.363-0.063 0.847-0.073 6.826-0.011 6.926 0.047 0.077 2.851 0.112 3.116 0.040 0.042-0.012 0.071-0.053 0.090-0.279 0.066-0.194 0.071-0.968 0.071-4.18v-4.103l0.179-0.566c0.117-0.37 0.413-1.344 0.656-2.163s0.538-1.801 0.654-2.18c1.057-3.447 2.067-6.838 2.094-7.032l0.022-0.158z"></path>
            <path d="M26.441 10.27l-0.001 0.214-0.033 0-0.019 5.906-0.018 5.726-0.458 0.467c-0.513 0.522-0.925 0.722-1.297 0.629-0.405-0.102-0.395 0.056-0.429-6.712l-0.031-6.23h-2.947v0.214h-0.034v6.759c0 7.242-0 7.237 0.367 7.965 0.293 0.579 0.719 0.861 1.45 0.958h0c0.962 0.128 2-0.308 2.962-1.244l0.418-0.407v0.701c0 0.606 0.017 0.706 0.127 0.737 0.18 0.050 2.412 0.053 2.653 0.004l0.2-0.041v-0.207l0.034-0.007v-15.472l-2.944 0.039z"></path>
            <path d="M18.965 13.323c-0.279-1.198-0.802-2.004-1.664-2.561-1.353-0.875-2.897-0.967-4.331-0.259-1.045 0.516-1.717 1.372-2.065 2.628-0.041 0.15-0.072 0.275-0.095 0.463-0.088 0.443-0.099 1.105-0.122 4.186-0.035 4.748 0.019 5.313 0.614 6.391 0.583 1.058 1.794 1.833 3.112 1.993 0.397 0.048 1.201-0.027 1.663-0.155 1.051-0.291 2.058-1.122 2.504-2.065 0.192-0.407 0.309-0.691 0.379-1.208 0.13-0.707 0.14-1.849 0.14-4.762-0-3.715-0.012-4.121-0.136-4.651zM15.604 23c-0.247 0.188-0.679 0.27-1.031 0.195-0.271-0.058-0.636-0.482-0.748-0.869-0.14-0.482-0.151-7.187-0.030-8.502 0.199-0.658 0.756-1.002 1.364-0.838 0.474 0.128 0.716 0.424 0.854 1.046 0.103 0.461 0.115 1.035 0.093 4.414-0.014 2.241-0.022 3.336-0.096 3.924-0.074 0.371-0.197 0.47-0.407 0.63z"></path>
            <path d="M71.887 16.692h1.424l-0.023-1.29c-0.022-1.183-0.039-1.319-0.198-1.64-0.249-0.507-0.617-0.731-1.201-0.731-0.701 0-1.146 0.339-1.356 1.036-0.089 0.296-0.183 2.334-0.116 2.51 0.038 0.098 0.241 0.116 1.469 0.116z"></path>
            <path d="M62.369 13.757c-0.19-0.383-0.543-0.571-0.954-0.556-0.319 0.011-0.674 0.146-1.015 0.407l-0.254 0.193v9.269l0.254 0.193c0.576 0.439 1.209 0.532 1.644 0.241 0.172-0.115 0.285-0.274 0.372-0.527 0.114-0.329 0.124-0.75 0.109-4.649-0.015-4.064-0.024-4.303-0.157-4.57z"></path>
            <path d="M80.027 9.582c-0.284-3.401-0.509-4.505-1.211-5.923-0.929-1.878-2.272-2.868-4.184-3.086-1.478-0.168-7.041-0.405-12.189-0.52-8.912-0.198-23.564 0.183-25.436 0.662-0.865 0.221-1.513 0.597-2.188 1.269-1.183 1.177-1.887 2.865-2.17 5.2-0.647 5.331-0.66 11.773-0.037 17.297 0.268 2.376 0.82 3.92 1.857 5.192 0.647 0.794 1.761 1.469 2.758 1.67 0.7 0.141 4.201 0.337 9.3 0.521 0.76 0.027 2.771 0.074 4.47 0.105 3.541 0.063 10.051 0.026 13.772-0.079 2.504-0.070 7.069-0.255 7.922-0.321 0.24-0.019 0.796-0.054 1.236-0.079 1.477-0.083 2.417-0.393 3.3-1.086 1.142-0.897 2.027-2.556 2.4-4.501 0.354-1.84 0.59-5.118 0.638-8.839 0.040-3.109-0.013-4.787-0.238-7.482zM44.54 8.35l-1.656 0.020-0.073 17.661-1.435 0.018c-1.11 0.015-1.447-0.001-1.474-0.073-0.019-0.051-0.042-4.032-0.052-8.849l-0.018-8.758-3.234-0.041v-2.76l9.557 0.039 0.041 2.721-1.656 0.020zM54.694 18.472v7.595h-2.616v-0.799c0-0.601-0.023-0.799-0.093-0.799-0.051 0-0.288 0.198-0.527 0.441-0.517 0.526-1.13 0.949-1.653 1.145-1.083 0.405-2.112 0.169-2.551-0.586-0.401-0.691-0.409-0.845-0.409-8.010v-6.58h2.614l0.020 6.196c0.019 6.088 0.022 6.2 0.168 6.448 0.193 0.329 0.488 0.417 0.956 0.288 0.276-0.076 0.464-0.21 0.911-0.654l0.563-0.561v-11.717h2.616v7.595zM64.899 24.982c-0.23 0.513-0.744 1.016-1.165 1.14-1.099 0.324-1.98 0.060-2.998-0.897-0.316-0.297-0.61-0.538-0.654-0.538-0.053 0-0.082 0.233-0.082 0.69v0.69h-2.616v-20.495h2.616v3.343c0 1.839 0.025 3.343 0.054 3.343s0.306-0.244 0.613-0.541c0.707-0.683 1.298-0.981 2.049-1.038 1.338-0.101 2.135 0.587 2.501 2.16 0.114 0.491 0.125 1.051 0.125 5.596-0 5.537-0.001 5.56-0.443 6.546zM75.968 21.943c-0.023 0.57-0.092 1.223-0.154 1.454-0.364 1.349-1.332 2.304-2.732 2.696-1.885 0.527-3.96-0.337-4.788-1.994-0.465-0.93-0.481-1.116-0.481-5.662 0-3.707 0.013-4.162 0.132-4.667 0.336-1.431 1.168-2.357 2.578-2.871 0.408-0.149 0.835-0.225 1.261-0.234 1.521-0.031 3.031 0.787 3.663 2.119 0.427 0.899 0.48 1.283 0.522 3.816l0.039 2.271-5.578 0.039-0.020 1.526c-0.029 2.153 0.116 2.815 0.697 3.207 0.489 0.329 1.24 0.305 1.649-0.055 0.383-0.337 0.491-0.698 0.529-1.753l0.034-0.927h2.694l-0.043 1.036z"></path>
    </symbol>
    <symbol id="send-icon" viewBox="0 0 24 20" fill="none">
        <path d="M24 0L0 11.25L7.66994 13.6172L19.5 4.375L10.5017 14.4913L10.509 14.4936L10.5 14.4913V20L14.8013 15.8183L20.2501 17.5L24 0Z" fill="white"/>
    </symbol>
    </defs>
</svg>